<?xml version="1.0" encoding="utf-8" standalone="no"?>
<!DOCTYPE svg PUBLIC "-//W3C//DTD SVG 1.1//EN"
  "http://www.w3.org/Graphics/SVG/1.1/DTD/svg11.dtd">
<!-- Created with matplotlib (http://matplotlib.org/) -->
<svg height="432pt" version="1.1" viewBox="0 0 576 432" width="576pt" xmlns="http://www.w3.org/2000/svg" xmlns:xlink="http://www.w3.org/1999/xlink">
 <defs>
  <style type="text/css">
*{stroke-linecap:butt;stroke-linejoin:round;stroke-miterlimit:100000;}
  </style>
 </defs>
 <g id="figure_1">
  <g id="patch_1">
   <path d="M 0 432 
L 576 432 
L 576 0 
L 0 0 
z
" style="fill:#ffffff;"/>
  </g>
  <g id="axes_1">
   <g id="patch_2">
    <path d="M 72 388.8 
L 518.4 388.8 
L 518.4 43.2 
L 72 43.2 
z
" style="fill:#ffffff;"/>
   </g>
   <g id="line2d_1">
    <path clip-path="url(#pb0f1719e40)" d="M 71.202686 350.652919 
L 72 384.107969 
L 72.797314 350.652919 
L 73.594627 337.685425 
L 74.391941 329.925667 
L 75.189255 324.189874 
L 75.986569 319.616865 
L 77.581196 312.372446 
L 79.175823 306.827575 
L 79.973137 304.888114 
L 80.770451 303.453125 
L 81.567765 303.833256 
L 82.365078 307.706297 
L 83.162392 333.369086 
L 83.959706 300.538919 
L 84.757019 279.515898 
L 85.554333 300.990705 
L 86.351647 173.81437 
L 87.14896 119.527729 
L 87.946274 94.036532 
L 88.743588 86.227513 
L 89.540902 94.012676 
L 90.338215 119.473038 
L 91.135529 173.692775 
L 91.932843 299.189185 
L 92.730156 279.796897 
L 93.52747 301.830668 
L 94.324784 328.772233 
L 95.122098 305.183978 
L 95.919411 302.067134 
L 96.716725 300.65223 
L 97.514039 302.66055 
L 98.311352 302.951644 
L 99.108666 305.267456 
L 99.90598 306.589705 
L 100.703294 309.173826 
L 101.500607 310.762613 
L 102.297921 311.642272 
L 103.095235 315.360089 
L 103.892548 317.083523 
L 104.689862 311.383951 
L 105.487176 318.439524 
L 106.28449 313.323281 
L 107.081803 325.992821 
L 107.879117 322.308314 
L 108.676431 327.525412 
L 109.473744 327.78624 
L 110.271058 324.899319 
L 111.068372 336.088282 
L 111.865686 328.028721 
L 112.662999 337.85078 
L 113.460313 325.186258 
L 114.257627 351.781091 
L 115.05494 328.523657 
L 115.852254 351.760463 
L 116.649568 326.776789 
L 117.446881 372.150925 
L 118.244195 337.166472 
L 119.041509 343.562918 
L 119.838823 348.986825 
L 120.636136 310.100684 
L 121.43345 289.021575 
L 122.230764 279.946426 
L 123.028077 288.431135 
L 123.825391 308.81849 
L 124.622705 348.391907 
L 125.420019 347.423696 
L 126.217332 338.776246 
L 127.014646 333.708507 
L 127.81196 324.691114 
L 128.609273 339.871872 
L 129.406587 335.983512 
L 130.203901 345.089327 
L 131.001215 328.382061 
L 131.798528 352.915081 
L 132.595842 359.134928 
L 133.393156 333.946048 
L 134.190469 330.472243 
L 134.987783 337.416166 
L 135.785097 338.207576 
L 136.582411 337.598942 
L 137.379724 322.518569 
L 138.177038 297.844373 
L 138.974352 289.932664 
L 139.771665 298.250397 
L 140.568979 323.26022 
L 141.366293 335.557906 
L 142.163606 333.405503 
L 142.96092 338.594933 
L 143.758234 328.205046 
L 144.555548 327.346207 
L 145.352861 340.99931 
L 146.150175 324.786077 
L 146.947489 320.871987 
L 147.744802 321.392643 
L 148.542116 328.646424 
L 149.33943 323.582399 
L 150.136744 319.807212 
L 150.934057 318.056843 
L 151.731371 333.496488 
L 152.528685 340.114187 
L 153.325998 338.77406 
L 154.123312 294.352229 
L 154.920626 269.307809 
L 155.71794 261.806327 
L 156.515253 269.249293 
L 157.312567 294.294747 
L 158.109881 340.149802 
L 158.907194 342.619876 
L 160.501822 321.2846 
L 161.299136 319.791852 
L 162.096449 321.444672 
L 162.893763 324.684092 
L 163.691077 327.33166 
L 164.48839 320.512618 
L 165.285704 327.291083 
L 166.083018 344.195103 
L 166.880331 324.055447 
L 167.677645 324.434649 
L 168.474959 332.817951 
L 169.272273 323.017891 
L 170.069586 325.721631 
L 170.8669 307.430101 
L 171.664214 281.323677 
L 172.461527 274.404051 
L 173.258841 282.333733 
L 174.056155 310.713905 
L 174.853469 317.792028 
L 175.650782 322.113835 
L 176.448096 328.162103 
L 177.24541 312.024168 
L 178.042723 315.942727 
L 178.840037 326.345668 
L 179.637351 311.131368 
L 180.434665 303.275645 
L 181.231978 304.668526 
L 182.029292 308.865716 
L 182.826606 309.820663 
L 183.623919 303.854474 
L 184.421233 305.573664 
L 185.218547 320.816161 
L 186.015861 339.523539 
L 186.813174 319.684156 
L 187.610488 282.409966 
L 188.407802 257.362655 
L 189.205115 249.591703 
L 190.002429 256.990984 
L 190.799743 280.623795 
L 191.597057 320.930841 
L 192.39437 347.279371 
L 193.191684 318.885933 
L 193.988998 301.247226 
L 194.786311 298.895793 
L 196.380939 316.566101 
L 197.178252 309.09661 
L 197.975566 304.506859 
L 198.77288 313.734016 
L 199.570194 344.364734 
L 200.367507 308.051494 
L 201.164821 304.311052 
L 201.962135 311.559847 
L 202.759448 306.51356 
L 203.556762 309.071855 
L 204.354076 297.51804 
L 205.15139 269.662769 
L 205.948703 262.333635 
L 206.746017 270.21076 
L 207.543331 295.126128 
L 208.340644 305.925814 
L 209.137958 308.352621 
L 209.935272 315.472816 
L 210.732586 302.514695 
L 211.529899 307.490522 
L 212.327213 333.106852 
L 213.124527 304.304676 
L 213.92184 296.794298 
L 214.719154 297.242828 
L 215.516468 301.467233 
L 216.313782 299.585806 
L 217.111095 292.665132 
L 217.908409 293.258723 
L 218.705723 311.147999 
L 219.503036 325.978443 
L 220.30035 309.689307 
L 221.097664 274.589491 
L 221.894977 249.688406 
L 222.692291 241.905846 
L 223.489605 249.283793 
L 224.286919 273.753349 
L 225.084232 346.961983 
L 225.881546 317.789836 
L 226.67886 305.270325 
L 227.476173 295.203456 
L 228.273487 295.368216 
L 229.070801 305.164842 
L 229.868115 316.458449 
L 230.665428 315.985639 
L 231.462742 307.161319 
L 232.260056 310.089647 
L 233.057369 330.445948 
L 233.854683 299.995481 
L 234.651997 294.621965 
L 235.449311 297.96619 
L 236.246624 296.508182 
L 237.043938 302.276489 
L 237.841252 286.302234 
L 238.638565 259.954638 
L 239.435879 252.820889 
L 240.233193 260.551212 
L 241.030507 285.313654 
L 241.82782 303.593247 
L 242.625134 302.686169 
L 243.422448 314.16718 
L 244.219761 304.775141 
L 245.017075 308.063169 
L 245.814389 313.355803 
L 246.611703 294.16955 
L 247.409016 288.305951 
L 248.20633 288.987492 
L 249.003644 291.212385 
L 249.800957 294.631581 
L 250.598271 290.339932 
L 251.395585 291.574395 
L 252.192898 309.700316 
L 252.990212 313.155509 
L 253.787526 302.031691 
L 254.58484 268.089231 
L 255.382153 242.996574 
L 256.179467 235.165371 
L 256.976781 242.501487 
L 257.774094 267.056047 
L 258.571408 343.081112 
L 259.368722 303.455757 
L 260.166036 297.722814 
L 260.963349 290.249672 
L 261.760663 289.248736 
L 262.557977 295.604459 
L 263.35529 305.65853 
L 264.152604 325.480447 
L 264.949918 309.523324 
L 265.747232 325.542013 
L 266.544545 303.505645 
L 267.341859 289.872386 
L 268.139173 289.532707 
L 268.936486 298.935658 
L 269.7338 295.924196 
L 270.531114 294.090025 
L 271.328428 280.840062 
L 272.125741 253.185558 
L 272.923055 245.589058 
L 273.720369 253.224087 
L 274.517682 276.860843 
L 275.314996 306.442039 
L 276.11231 309.817459 
L 276.909623 323.939686 
L 277.706937 289.531338 
L 278.504251 289.748407 
L 279.301565 310.373276 
L 280.098878 294.220938 
L 280.896192 284.922302 
L 281.693506 285.868703 
L 282.490819 292.660289 
L 283.288133 296.450634 
L 284.085447 289.515074 
L 284.882761 290.88729 
L 285.680074 311.587489 
L 286.477388 304.744011 
L 287.274702 294.493837 
L 288.072015 261.782257 
L 288.869329 237.420218 
L 289.666643 229.566739 
L 290.463957 236.846034 
L 291.26127 260.433585 
L 292.058584 297.816528 
L 292.855898 329.981428 
L 293.653211 304.314256 
L 294.450525 287.7077 
L 295.247839 285.264498 
L 296.045153 292.322479 
L 296.842466 306.872548 
L 297.63978 330.610159 
L 298.437094 305.504272 
L 299.234407 317.365495 
L 300.829035 288.688566 
L 301.626349 286.145097 
L 302.423662 289.639522 
L 303.220976 286.445686 
L 304.01829 289.356115 
L 304.815603 276.394527 
L 305.612917 247.496889 
L 306.410231 239.717233 
L 307.207544 247.243687 
L 308.004858 271.078616 
L 308.802172 298.677208 
L 309.599486 303.600565 
L 310.396799 322.775066 
L 311.194113 289.974428 
L 311.991427 288.267594 
L 312.78874 302.089595 
L 313.586054 289.544854 
L 314.383368 283.466576 
L 315.180682 289.992358 
L 315.977995 297.462769 
L 316.775309 298.258288 
L 317.572623 291.288603 
L 318.369936 290.736016 
L 319.16725 316.01821 
L 319.964564 310.035348 
L 320.761878 296.947522 
L 321.559191 259.702164 
L 322.356505 233.944651 
L 323.153819 225.818527 
L 323.951132 232.996506 
L 324.748446 257.229771 
L 325.54576 314.473084 
L 326.343074 292.31122 
L 327.140387 290.91518 
L 327.937701 289.755097 
L 328.735015 289.922033 
L 329.532328 294.676613 
L 330.329642 307.628973 
L 331.126956 296.21101 
L 331.924269 292.717366 
L 332.721583 308.654706 
L 333.518897 293.635341 
L 334.316211 286.972027 
L 335.113524 291.880224 
L 335.910838 305.648488 
L 336.708152 302.094133 
L 337.505465 303.535307 
L 338.302779 266.987223 
L 339.100093 241.86182 
L 339.897407 234.210977 
L 340.69472 241.760529 
L 342.289348 287.423393 
L 343.086661 292.734546 
L 343.883975 299.691767 
L 344.681289 286.261054 
L 345.478603 287.496699 
L 346.275916 293.101077 
L 347.07323 283.593804 
L 347.870544 277.996738 
L 348.667857 276.939897 
L 349.465171 284.014334 
L 350.262485 296.136179 
L 351.059799 290.53873 
L 351.857112 286.266597 
L 352.654426 298.933743 
L 353.45174 287.455187 
L 354.249053 280.452425 
L 355.843681 231.125458 
L 356.640994 223.223532 
L 357.438308 230.578702 
L 358.235622 254.963951 
L 359.032936 298.087495 
L 359.830249 296.612868 
L 360.627563 291.324628 
L 361.424877 280.66448 
L 362.22219 277.87936 
L 363.019504 281.717749 
L 363.816818 287.237403 
L 364.614132 294.944502 
L 365.411445 312.52212 
L 366.208759 301.616204 
L 367.006073 283.876043 
L 367.803386 277.460691 
L 368.6007 282.70262 
L 369.398014 302.72005 
L 370.195328 333.786402 
L 370.992641 290.584765 
L 371.789955 260.16221 
L 372.587269 238.536921 
L 373.384582 231.422792 
L 374.181896 239.454065 
L 374.97921 264.625697 
L 375.776524 281.361731 
L 376.573837 288.072015 
L 377.371151 298.804308 
L 378.168465 293.654689 
L 378.965778 301.171185 
L 379.763092 300.775283 
L 380.560406 286.795114 
L 381.35772 283.050892 
L 382.155033 284.045149 
L 382.952347 294.035167 
L 383.749661 307.132877 
L 384.546974 287.695687 
L 385.344288 282.112608 
L 386.938915 305.083264 
L 387.736229 286.220805 
L 389.330857 233.471614 
L 390.12817 225.316096 
L 390.925484 232.366946 
L 391.722798 256.111742 
L 392.520111 317.514702 
L 393.317425 302.522791 
L 394.114739 294.65872 
L 394.912053 289.047405 
L 395.709366 286.783056 
L 396.50668 291.038107 
L 397.303994 311.608716 
L 398.101307 309.113579 
L 398.898621 299.894355 
L 399.695935 302.950733 
L 400.493249 310.377428 
L 401.290562 289.053165 
L 402.087876 290.487372 
L 402.88519 320.484871 
L 403.682503 300.150732 
L 404.479817 312.92421 
L 405.277131 261.423377 
L 406.074445 236.072645 
L 406.871758 228.462402 
L 407.669072 236.161038 
L 409.263699 285.397449 
L 410.061013 294.409988 
L 411.65564 273.600254 
L 412.452954 278.08308 
L 413.250268 297.805777 
L 414.047582 292.674934 
L 414.844895 285.550404 
L 415.642209 283.283652 
L 416.439523 287.368485 
L 417.236836 297.571516 
L 418.03415 290.184067 
L 418.831464 288.376563 
L 419.628778 297.65438 
L 420.426091 287.983678 
L 421.223405 280.710714 
L 422.020719 263.374657 
L 422.818032 232.031623 
L 423.615346 223.247551 
L 424.41266 229.947587 
L 425.209974 251.972255 
L 426.007287 285.687054 
L 426.804601 293.381888 
L 427.601915 290.658172 
L 428.399228 282.584582 
L 429.196542 280.303659 
L 429.993856 284.068807 
L 430.79117 293.820801 
L 431.588483 298.031454 
L 432.385797 296.199642 
L 433.183111 308.248113 
L 433.980424 303.69858 
L 434.777738 303.893651 
L 435.575052 314.692059 
L 436.372366 314.449448 
L 437.169679 295.54163 
L 437.966993 293.609482 
L 439.56162 233.925943 
L 440.358934 225.485216 
L 441.156248 232.637208 
L 442.750875 280.999572 
L 443.548189 279.79547 
L 444.345503 276.939059 
L 445.142816 274.64018 
L 445.94013 281.92356 
L 446.737444 311.70792 
L 447.534757 305.150639 
L 448.332071 301.002885 
L 449.129385 309.512433 
L 449.926699 293.38315 
L 450.724012 301.077703 
L 451.521326 278.967053 
L 452.31864 278.195504 
L 453.115953 304.040133 
L 453.913267 298.948542 
L 454.710581 296.746391 
L 455.507895 255.714198 
L 456.305208 228.072934 
L 457.102522 219.779432 
L 457.899836 227.243537 
L 458.697149 252.536597 
L 459.494463 289.071434 
L 460.291777 300.400751 
L 461.089091 303.585865 
L 461.886404 287.278552 
L 462.683718 291.096224 
L 463.481032 302.845235 
L 464.278345 293.06626 
L 465.075659 302.807488 
L 465.872973 322.808435 
L 466.670286 305.06301 
L 467.4676 307.516671 
L 468.264914 282.630321 
L 469.062228 273.748892 
L 469.859541 277.176913 
L 470.656855 281.572713 
L 471.454169 287.177808 
L 472.251482 263.742818 
L 473.048796 235.432258 
L 473.84611 227.255783 
L 474.643424 234.722114 
L 475.440737 260.583124 
L 476.238051 292.384735 
L 477.035365 286.882794 
L 477.832678 291.253878 
L 478.629992 284.314656 
L 479.427306 291.881248 
L 480.22462 308.039206 
L 481.021933 289.183028 
L 481.819247 298.659129 
L 482.616561 292.68386 
L 483.413874 284.422704 
L 484.211188 281.525372 
L 485.008502 280.091744 
L 485.805816 284.798059 
L 486.603129 291.060223 
L 487.400443 296.144959 
L 488.197757 292.488606 
L 488.99507 250.999807 
L 489.792384 226.415115 
L 490.589698 218.620995 
L 491.387012 226.35878 
L 492.184325 252.103909 
L 492.981639 301.101503 
L 493.778953 308.824077 
L 494.576266 315.378957 
L 495.37358 311.179378 
L 496.170894 308.109799 
L 496.968207 289.780882 
L 497.765521 286.108087 
L 498.562835 293.727991 
L 499.360149 322.306103 
L 500.157462 284.780364 
L 500.954776 275.862511 
L 501.75209 272.964189 
L 502.549403 274.186247 
L 503.346717 277.101262 
L 504.144031 291.32509 
L 504.941345 301.403113 
L 506.535972 233.128161 
L 507.333286 223.974678 
L 508.130599 230.998032 
L 508.927913 256.773859 
L 509.725227 295.827269 
L 510.522541 292.130592 
L 511.319854 293.319886 
L 512.117168 282.148919 
L 512.914482 285.455756 
L 513.711795 287.244781 
L 514.509109 284.024589 
L 515.306423 281.273709 
L 516.103737 285.352209 
L 516.90105 293.702022 
L 517.698364 288.137854 
L 518.495678 280.206922 
L 518.495678 280.206922 
" style="fill:none;stroke:#0000ff;stroke-linecap:square;"/>
   </g>
   <g id="patch_3">
    <path d="M 72 43.2 
L 518.4 43.2 
" style="fill:none;stroke:#000000;stroke-linecap:square;stroke-linejoin:miter;"/>
   </g>
   <g id="patch_4">
    <path d="M 72 388.8 
L 518.4 388.8 
" style="fill:none;stroke:#000000;stroke-linecap:square;stroke-linejoin:miter;"/>
   </g>
   <g id="patch_5">
    <path d="M 518.4 388.8 
L 518.4 43.2 
" style="fill:none;stroke:#000000;stroke-linecap:square;stroke-linejoin:miter;"/>
   </g>
   <g id="patch_6">
    <path d="M 72 388.8 
L 72 43.2 
" style="fill:none;stroke:#000000;stroke-linecap:square;stroke-linejoin:miter;"/>
   </g>
   <g id="matplotlib.axis_1">
    <g id="xtick_1">
     <g id="line2d_2">
      <defs>
       <path d="M 0 0 
L 0 -4 
" id="mcc370b577c" style="stroke:#000000;stroke-width:0.5;"/>
      </defs>
      <g>
       <use style="stroke:#000000;stroke-width:0.5;" x="72.0" xlink:href="#mcc370b577c" y="388.8"/>
      </g>
     </g>
     <g id="line2d_3">
      <defs>
       <path d="M 0 0 
L 0 4 
" id="m5866f89fb6" style="stroke:#000000;stroke-width:0.5;"/>
      </defs>
      <g>
       <use style="stroke:#000000;stroke-width:0.5;" x="72.0" xlink:href="#m5866f89fb6" y="43.2"/>
      </g>
     </g>
     <g id="text_1">
      <!-- 0 Hz -->
      <defs>
       <path d="M 5.515625 54.6875 
L 48.1875 54.6875 
L 48.1875 46.484375 
L 14.40625 7.171875 
L 48.1875 7.171875 
L 48.1875 0 
L 4.296875 0 
L 4.296875 8.203125 
L 38.09375 47.515625 
L 5.515625 47.515625 
z
" id="BitstreamVeraSans-Roman-7a"/>
       <path id="BitstreamVeraSans-Roman-20"/>
       <path d="M 9.8125 72.90625 
L 19.671875 72.90625 
L 19.671875 43.015625 
L 55.515625 43.015625 
L 55.515625 72.90625 
L 65.375 72.90625 
L 65.375 0 
L 55.515625 0 
L 55.515625 34.71875 
L 19.671875 34.71875 
L 19.671875 0 
L 9.8125 0 
z
" id="BitstreamVeraSans-Roman-48"/>
       <path d="M 31.78125 66.40625 
Q 24.171875 66.40625 20.328125 58.90625 
Q 16.5 51.421875 16.5 36.375 
Q 16.5 21.390625 20.328125 13.890625 
Q 24.171875 6.390625 31.78125 6.390625 
Q 39.453125 6.390625 43.28125 13.890625 
Q 47.125 21.390625 47.125 36.375 
Q 47.125 51.421875 43.28125 58.90625 
Q 39.453125 66.40625 31.78125 66.40625 
M 31.78125 74.21875 
Q 44.046875 74.21875 50.515625 64.515625 
Q 56.984375 54.828125 56.984375 36.375 
Q 56.984375 17.96875 50.515625 8.265625 
Q 44.046875 -1.421875 31.78125 -1.421875 
Q 19.53125 -1.421875 13.0625 8.265625 
Q 6.59375 17.96875 6.59375 36.375 
Q 6.59375 54.828125 13.0625 64.515625 
Q 19.53125 74.21875 31.78125 74.21875 
" id="BitstreamVeraSans-Roman-30"/>
      </defs>
      <g transform="translate(58.614375 401.918125)scale(0.12 -0.12)">
       <use xlink:href="#BitstreamVeraSans-Roman-30"/>
       <use x="63.623046875" xlink:href="#BitstreamVeraSans-Roman-20"/>
       <use x="95.41015625" xlink:href="#BitstreamVeraSans-Roman-48"/>
       <use x="170.60546875" xlink:href="#BitstreamVeraSans-Roman-7a"/>
      </g>
     </g>
    </g>
    <g id="xtick_2">
     <g id="line2d_4">
      <g>
       <use style="stroke:#000000;stroke-width:0.5;" x="161.28" xlink:href="#mcc370b577c" y="388.8"/>
      </g>
     </g>
     <g id="line2d_5">
      <g>
       <use style="stroke:#000000;stroke-width:0.5;" x="161.28" xlink:href="#m5866f89fb6" y="43.2"/>
      </g>
     </g>
     <g id="text_2">
      <!-- 200 kHz -->
      <defs>
       <path d="M 9.078125 75.984375 
L 18.109375 75.984375 
L 18.109375 31.109375 
L 44.921875 54.6875 
L 56.390625 54.6875 
L 27.390625 29.109375 
L 57.625 0 
L 45.90625 0 
L 18.109375 26.703125 
L 18.109375 0 
L 9.078125 0 
z
" id="BitstreamVeraSans-Roman-6b"/>
       <path d="M 19.1875 8.296875 
L 53.609375 8.296875 
L 53.609375 0 
L 7.328125 0 
L 7.328125 8.296875 
Q 12.9375 14.109375 22.625 23.890625 
Q 32.328125 33.6875 34.8125 36.53125 
Q 39.546875 41.84375 41.421875 45.53125 
Q 43.3125 49.21875 43.3125 52.78125 
Q 43.3125 58.59375 39.234375 62.25 
Q 35.15625 65.921875 28.609375 65.921875 
Q 23.96875 65.921875 18.8125 64.3125 
Q 13.671875 62.703125 7.8125 59.421875 
L 7.8125 69.390625 
Q 13.765625 71.78125 18.9375 73 
Q 24.125 74.21875 28.421875 74.21875 
Q 39.75 74.21875 46.484375 68.546875 
Q 53.21875 62.890625 53.21875 53.421875 
Q 53.21875 48.921875 51.53125 44.890625 
Q 49.859375 40.875 45.40625 35.40625 
Q 44.1875 33.984375 37.640625 27.21875 
Q 31.109375 20.453125 19.1875 8.296875 
" id="BitstreamVeraSans-Roman-32"/>
      </defs>
      <g transform="translate(136.785 401.918125)scale(0.12 -0.12)">
       <use xlink:href="#BitstreamVeraSans-Roman-32"/>
       <use x="63.623046875" xlink:href="#BitstreamVeraSans-Roman-30"/>
       <use x="127.24609375" xlink:href="#BitstreamVeraSans-Roman-30"/>
       <use x="190.869140625" xlink:href="#BitstreamVeraSans-Roman-20"/>
       <use x="222.65625" xlink:href="#BitstreamVeraSans-Roman-6b"/>
       <use x="280.56640625" xlink:href="#BitstreamVeraSans-Roman-48"/>
       <use x="355.76171875" xlink:href="#BitstreamVeraSans-Roman-7a"/>
      </g>
     </g>
    </g>
    <g id="xtick_3">
     <g id="line2d_6">
      <g>
       <use style="stroke:#000000;stroke-width:0.5;" x="250.56" xlink:href="#mcc370b577c" y="388.8"/>
      </g>
     </g>
     <g id="line2d_7">
      <g>
       <use style="stroke:#000000;stroke-width:0.5;" x="250.56" xlink:href="#m5866f89fb6" y="43.2"/>
      </g>
     </g>
     <g id="text_3">
      <!-- 400 kHz -->
      <defs>
       <path d="M 37.796875 64.3125 
L 12.890625 25.390625 
L 37.796875 25.390625 
z
M 35.203125 72.90625 
L 47.609375 72.90625 
L 47.609375 25.390625 
L 58.015625 25.390625 
L 58.015625 17.1875 
L 47.609375 17.1875 
L 47.609375 0 
L 37.796875 0 
L 37.796875 17.1875 
L 4.890625 17.1875 
L 4.890625 26.703125 
z
" id="BitstreamVeraSans-Roman-34"/>
      </defs>
      <g transform="translate(226.065 401.918125)scale(0.12 -0.12)">
       <use xlink:href="#BitstreamVeraSans-Roman-34"/>
       <use x="63.623046875" xlink:href="#BitstreamVeraSans-Roman-30"/>
       <use x="127.24609375" xlink:href="#BitstreamVeraSans-Roman-30"/>
       <use x="190.869140625" xlink:href="#BitstreamVeraSans-Roman-20"/>
       <use x="222.65625" xlink:href="#BitstreamVeraSans-Roman-6b"/>
       <use x="280.56640625" xlink:href="#BitstreamVeraSans-Roman-48"/>
       <use x="355.76171875" xlink:href="#BitstreamVeraSans-Roman-7a"/>
      </g>
     </g>
    </g>
    <g id="xtick_4">
     <g id="line2d_8">
      <g>
       <use style="stroke:#000000;stroke-width:0.5;" x="339.84" xlink:href="#mcc370b577c" y="388.8"/>
      </g>
     </g>
     <g id="line2d_9">
      <g>
       <use style="stroke:#000000;stroke-width:0.5;" x="339.84" xlink:href="#m5866f89fb6" y="43.2"/>
      </g>
     </g>
     <g id="text_4">
      <!-- 600 kHz -->
      <defs>
       <path d="M 33.015625 40.375 
Q 26.375 40.375 22.484375 35.828125 
Q 18.609375 31.296875 18.609375 23.390625 
Q 18.609375 15.53125 22.484375 10.953125 
Q 26.375 6.390625 33.015625 6.390625 
Q 39.65625 6.390625 43.53125 10.953125 
Q 47.40625 15.53125 47.40625 23.390625 
Q 47.40625 31.296875 43.53125 35.828125 
Q 39.65625 40.375 33.015625 40.375 
M 52.59375 71.296875 
L 52.59375 62.3125 
Q 48.875 64.0625 45.09375 64.984375 
Q 41.3125 65.921875 37.59375 65.921875 
Q 27.828125 65.921875 22.671875 59.328125 
Q 17.53125 52.734375 16.796875 39.40625 
Q 19.671875 43.65625 24.015625 45.921875 
Q 28.375 48.1875 33.59375 48.1875 
Q 44.578125 48.1875 50.953125 41.515625 
Q 57.328125 34.859375 57.328125 23.390625 
Q 57.328125 12.15625 50.6875 5.359375 
Q 44.046875 -1.421875 33.015625 -1.421875 
Q 20.359375 -1.421875 13.671875 8.265625 
Q 6.984375 17.96875 6.984375 36.375 
Q 6.984375 53.65625 15.1875 63.9375 
Q 23.390625 74.21875 37.203125 74.21875 
Q 40.921875 74.21875 44.703125 73.484375 
Q 48.484375 72.75 52.59375 71.296875 
" id="BitstreamVeraSans-Roman-36"/>
      </defs>
      <g transform="translate(315.345 401.918125)scale(0.12 -0.12)">
       <use xlink:href="#BitstreamVeraSans-Roman-36"/>
       <use x="63.623046875" xlink:href="#BitstreamVeraSans-Roman-30"/>
       <use x="127.24609375" xlink:href="#BitstreamVeraSans-Roman-30"/>
       <use x="190.869140625" xlink:href="#BitstreamVeraSans-Roman-20"/>
       <use x="222.65625" xlink:href="#BitstreamVeraSans-Roman-6b"/>
       <use x="280.56640625" xlink:href="#BitstreamVeraSans-Roman-48"/>
       <use x="355.76171875" xlink:href="#BitstreamVeraSans-Roman-7a"/>
      </g>
     </g>
    </g>
    <g id="xtick_5">
     <g id="line2d_10">
      <g>
       <use style="stroke:#000000;stroke-width:0.5;" x="429.12" xlink:href="#mcc370b577c" y="388.8"/>
      </g>
     </g>
     <g id="line2d_11">
      <g>
       <use style="stroke:#000000;stroke-width:0.5;" x="429.12" xlink:href="#m5866f89fb6" y="43.2"/>
      </g>
     </g>
     <g id="text_5">
      <!-- 800 kHz -->
      <defs>
       <path d="M 31.78125 34.625 
Q 24.75 34.625 20.71875 30.859375 
Q 16.703125 27.09375 16.703125 20.515625 
Q 16.703125 13.921875 20.71875 10.15625 
Q 24.75 6.390625 31.78125 6.390625 
Q 38.8125 6.390625 42.859375 10.171875 
Q 46.921875 13.96875 46.921875 20.515625 
Q 46.921875 27.09375 42.890625 30.859375 
Q 38.875 34.625 31.78125 34.625 
M 21.921875 38.8125 
Q 15.578125 40.375 12.03125 44.71875 
Q 8.5 49.078125 8.5 55.328125 
Q 8.5 64.0625 14.71875 69.140625 
Q 20.953125 74.21875 31.78125 74.21875 
Q 42.671875 74.21875 48.875 69.140625 
Q 55.078125 64.0625 55.078125 55.328125 
Q 55.078125 49.078125 51.53125 44.71875 
Q 48 40.375 41.703125 38.8125 
Q 48.828125 37.15625 52.796875 32.3125 
Q 56.78125 27.484375 56.78125 20.515625 
Q 56.78125 9.90625 50.3125 4.234375 
Q 43.84375 -1.421875 31.78125 -1.421875 
Q 19.734375 -1.421875 13.25 4.234375 
Q 6.78125 9.90625 6.78125 20.515625 
Q 6.78125 27.484375 10.78125 32.3125 
Q 14.796875 37.15625 21.921875 38.8125 
M 18.3125 54.390625 
Q 18.3125 48.734375 21.84375 45.5625 
Q 25.390625 42.390625 31.78125 42.390625 
Q 38.140625 42.390625 41.71875 45.5625 
Q 45.3125 48.734375 45.3125 54.390625 
Q 45.3125 60.0625 41.71875 63.234375 
Q 38.140625 66.40625 31.78125 66.40625 
Q 25.390625 66.40625 21.84375 63.234375 
Q 18.3125 60.0625 18.3125 54.390625 
" id="BitstreamVeraSans-Roman-38"/>
      </defs>
      <g transform="translate(404.625 401.918125)scale(0.12 -0.12)">
       <use xlink:href="#BitstreamVeraSans-Roman-38"/>
       <use x="63.623046875" xlink:href="#BitstreamVeraSans-Roman-30"/>
       <use x="127.24609375" xlink:href="#BitstreamVeraSans-Roman-30"/>
       <use x="190.869140625" xlink:href="#BitstreamVeraSans-Roman-20"/>
       <use x="222.65625" xlink:href="#BitstreamVeraSans-Roman-6b"/>
       <use x="280.56640625" xlink:href="#BitstreamVeraSans-Roman-48"/>
       <use x="355.76171875" xlink:href="#BitstreamVeraSans-Roman-7a"/>
      </g>
     </g>
    </g>
    <g id="xtick_6">
     <g id="line2d_12">
      <g>
       <use style="stroke:#000000;stroke-width:0.5;" x="518.4" xlink:href="#mcc370b577c" y="388.8"/>
      </g>
     </g>
     <g id="line2d_13">
      <g>
       <use style="stroke:#000000;stroke-width:0.5;" x="518.4" xlink:href="#m5866f89fb6" y="43.2"/>
      </g>
     </g>
     <g id="text_6">
      <!-- 1 MHz -->
      <defs>
       <path d="M 9.8125 72.90625 
L 24.515625 72.90625 
L 43.109375 23.296875 
L 61.8125 72.90625 
L 76.515625 72.90625 
L 76.515625 0 
L 66.890625 0 
L 66.890625 64.015625 
L 48.09375 14.015625 
L 38.1875 14.015625 
L 19.390625 64.015625 
L 19.390625 0 
L 9.8125 0 
z
" id="BitstreamVeraSans-Roman-4d"/>
       <path d="M 12.40625 8.296875 
L 28.515625 8.296875 
L 28.515625 63.921875 
L 10.984375 60.40625 
L 10.984375 69.390625 
L 28.421875 72.90625 
L 38.28125 72.90625 
L 38.28125 8.296875 
L 54.390625 8.296875 
L 54.390625 0 
L 12.40625 0 
z
" id="BitstreamVeraSans-Roman-31"/>
      </defs>
      <g transform="translate(499.8375 401.918125)scale(0.12 -0.12)">
       <use xlink:href="#BitstreamVeraSans-Roman-31"/>
       <use x="63.623046875" xlink:href="#BitstreamVeraSans-Roman-20"/>
       <use x="95.41015625" xlink:href="#BitstreamVeraSans-Roman-4d"/>
       <use x="181.689453125" xlink:href="#BitstreamVeraSans-Roman-48"/>
       <use x="256.884765625" xlink:href="#BitstreamVeraSans-Roman-7a"/>
      </g>
     </g>
    </g>
   </g>
   <g id="matplotlib.axis_2">
    <g id="ytick_1">
     <g id="line2d_14">
      <defs>
       <path d="M 0 0 
L 4 0 
" id="m433fd47c3b" style="stroke:#000000;stroke-width:0.5;"/>
      </defs>
      <g>
       <use style="stroke:#000000;stroke-width:0.5;" x="72.0" xlink:href="#m433fd47c3b" y="388.8"/>
      </g>
     </g>
     <g id="line2d_15">
      <defs>
       <path d="M 0 0 
L -4 0 
" id="ma98af00824" style="stroke:#000000;stroke-width:0.5;"/>
      </defs>
      <g>
       <use style="stroke:#000000;stroke-width:0.5;" x="518.4" xlink:href="#ma98af00824" y="388.8"/>
      </g>
     </g>
     <g id="text_7">
      <!-- 100 nV -->
      <defs>
       <path d="M 28.609375 0 
L 0.78125 72.90625 
L 11.078125 72.90625 
L 34.1875 11.53125 
L 57.328125 72.90625 
L 67.578125 72.90625 
L 39.796875 0 
z
" id="BitstreamVeraSans-Roman-56"/>
       <path d="M 54.890625 33.015625 
L 54.890625 0 
L 45.90625 0 
L 45.90625 32.71875 
Q 45.90625 40.484375 42.875 44.328125 
Q 39.84375 48.1875 33.796875 48.1875 
Q 26.515625 48.1875 22.3125 43.546875 
Q 18.109375 38.921875 18.109375 30.90625 
L 18.109375 0 
L 9.078125 0 
L 9.078125 54.6875 
L 18.109375 54.6875 
L 18.109375 46.1875 
Q 21.34375 51.125 25.703125 53.5625 
Q 30.078125 56 35.796875 56 
Q 45.21875 56 50.046875 50.171875 
Q 54.890625 44.34375 54.890625 33.015625 
" id="BitstreamVeraSans-Roman-6e"/>
      </defs>
      <g transform="translate(25.4675 392.11125)scale(0.12 -0.12)">
       <use xlink:href="#BitstreamVeraSans-Roman-31"/>
       <use x="63.623046875" xlink:href="#BitstreamVeraSans-Roman-30"/>
       <use x="127.24609375" xlink:href="#BitstreamVeraSans-Roman-30"/>
       <use x="190.869140625" xlink:href="#BitstreamVeraSans-Roman-20"/>
       <use x="222.65625" xlink:href="#BitstreamVeraSans-Roman-6e"/>
       <use x="286.03515625" xlink:href="#BitstreamVeraSans-Roman-56"/>
      </g>
     </g>
    </g>
    <g id="ytick_2">
     <g id="line2d_16">
      <g>
       <use style="stroke:#000000;stroke-width:0.5;" x="72.0" xlink:href="#m433fd47c3b" y="345.6"/>
      </g>
     </g>
     <g id="line2d_17">
      <g>
       <use style="stroke:#000000;stroke-width:0.5;" x="518.4" xlink:href="#ma98af00824" y="345.6"/>
      </g>
     </g>
     <g id="text_8">
      <!-- 1 μV -->
      <defs>
       <path d="M 19.09375 12.40625 
L 29 12.40625 
L 29 0 
L 19.09375 0 
z
M 28.71875 19.578125 
L 19.390625 19.578125 
L 19.390625 27.09375 
Q 19.390625 32.03125 20.75 35.203125 
Q 22.125 38.375 26.515625 42.578125 
L 30.90625 46.921875 
Q 33.6875 49.515625 34.9375 51.8125 
Q 36.1875 54.109375 36.1875 56.5 
Q 36.1875 60.84375 32.984375 63.53125 
Q 29.78125 66.21875 24.515625 66.21875 
Q 20.65625 66.21875 16.28125 64.5 
Q 11.921875 62.796875 7.171875 59.515625 
L 7.171875 68.703125 
Q 11.765625 71.484375 16.46875 72.84375 
Q 21.1875 74.21875 26.21875 74.21875 
Q 35.203125 74.21875 40.640625 69.484375 
Q 46.09375 64.75 46.09375 56.984375 
Q 46.09375 53.265625 44.328125 49.921875 
Q 42.578125 46.578125 38.1875 42.390625 
L 33.890625 38.1875 
Q 31.59375 35.890625 30.640625 34.59375 
Q 29.6875 33.296875 29.296875 32.078125 
Q 29 31.0625 28.859375 29.59375 
Q 28.71875 28.125 28.71875 25.59375 
z
" id="BitstreamVeraSans-Roman-3f"/>
      </defs>
      <g transform="translate(41.140625 348.91125)scale(0.12 -0.12)">
       <use xlink:href="#BitstreamVeraSans-Roman-31"/>
       <use x="63.623046875" xlink:href="#BitstreamVeraSans-Roman-20"/>
       <use x="95.41015625" xlink:href="#BitstreamVeraSans-Roman-3f"/>
       <use x="148.486328125" xlink:href="#BitstreamVeraSans-Roman-56"/>
      </g>
     </g>
    </g>
    <g id="ytick_3">
     <g id="line2d_18">
      <g>
       <use style="stroke:#000000;stroke-width:0.5;" x="72.0" xlink:href="#m433fd47c3b" y="302.4"/>
      </g>
     </g>
     <g id="line2d_19">
      <g>
       <use style="stroke:#000000;stroke-width:0.5;" x="518.4" xlink:href="#ma98af00824" y="302.4"/>
      </g>
     </g>
     <g id="text_9">
      <!-- 10 μV -->
      <g transform="translate(33.505625 305.71125)scale(0.12 -0.12)">
       <use xlink:href="#BitstreamVeraSans-Roman-31"/>
       <use x="63.623046875" xlink:href="#BitstreamVeraSans-Roman-30"/>
       <use x="127.24609375" xlink:href="#BitstreamVeraSans-Roman-20"/>
       <use x="159.033203125" xlink:href="#BitstreamVeraSans-Roman-3f"/>
       <use x="212.109375" xlink:href="#BitstreamVeraSans-Roman-56"/>
      </g>
     </g>
    </g>
    <g id="ytick_4">
     <g id="line2d_20">
      <g>
       <use style="stroke:#000000;stroke-width:0.5;" x="72.0" xlink:href="#m433fd47c3b" y="259.2"/>
      </g>
     </g>
     <g id="line2d_21">
      <g>
       <use style="stroke:#000000;stroke-width:0.5;" x="518.4" xlink:href="#ma98af00824" y="259.2"/>
      </g>
     </g>
     <g id="text_10">
      <!-- 100 μV -->
      <g transform="translate(25.870625 262.51125)scale(0.12 -0.12)">
       <use xlink:href="#BitstreamVeraSans-Roman-31"/>
       <use x="63.623046875" xlink:href="#BitstreamVeraSans-Roman-30"/>
       <use x="127.24609375" xlink:href="#BitstreamVeraSans-Roman-30"/>
       <use x="190.869140625" xlink:href="#BitstreamVeraSans-Roman-20"/>
       <use x="222.65625" xlink:href="#BitstreamVeraSans-Roman-3f"/>
       <use x="275.732421875" xlink:href="#BitstreamVeraSans-Roman-56"/>
      </g>
     </g>
    </g>
    <g id="ytick_5">
     <g id="line2d_22">
      <g>
       <use style="stroke:#000000;stroke-width:0.5;" x="72.0" xlink:href="#m433fd47c3b" y="216.0"/>
      </g>
     </g>
     <g id="line2d_23">
      <g>
       <use style="stroke:#000000;stroke-width:0.5;" x="518.4" xlink:href="#ma98af00824" y="216.0"/>
      </g>
     </g>
     <g id="text_11">
      <!-- 1 mV -->
      <defs>
       <path d="M 52 44.1875 
Q 55.375 50.25 60.0625 53.125 
Q 64.75 56 71.09375 56 
Q 79.640625 56 84.28125 50.015625 
Q 88.921875 44.046875 88.921875 33.015625 
L 88.921875 0 
L 79.890625 0 
L 79.890625 32.71875 
Q 79.890625 40.578125 77.09375 44.375 
Q 74.3125 48.1875 68.609375 48.1875 
Q 61.625 48.1875 57.5625 43.546875 
Q 53.515625 38.921875 53.515625 30.90625 
L 53.515625 0 
L 44.484375 0 
L 44.484375 32.71875 
Q 44.484375 40.625 41.703125 44.40625 
Q 38.921875 48.1875 33.109375 48.1875 
Q 26.21875 48.1875 22.15625 43.53125 
Q 18.109375 38.875 18.109375 30.90625 
L 18.109375 0 
L 9.078125 0 
L 9.078125 54.6875 
L 18.109375 54.6875 
L 18.109375 46.1875 
Q 21.1875 51.21875 25.484375 53.609375 
Q 29.78125 56 35.6875 56 
Q 41.65625 56 45.828125 52.96875 
Q 50 49.953125 52 44.1875 
" id="BitstreamVeraSans-Roman-6d"/>
      </defs>
      <g transform="translate(36.65375 219.31125)scale(0.12 -0.12)">
       <use xlink:href="#BitstreamVeraSans-Roman-31"/>
       <use x="63.623046875" xlink:href="#BitstreamVeraSans-Roman-20"/>
       <use x="95.41015625" xlink:href="#BitstreamVeraSans-Roman-6d"/>
       <use x="192.822265625" xlink:href="#BitstreamVeraSans-Roman-56"/>
      </g>
     </g>
    </g>
    <g id="ytick_6">
     <g id="line2d_24">
      <g>
       <use style="stroke:#000000;stroke-width:0.5;" x="72.0" xlink:href="#m433fd47c3b" y="172.8"/>
      </g>
     </g>
     <g id="line2d_25">
      <g>
       <use style="stroke:#000000;stroke-width:0.5;" x="518.4" xlink:href="#ma98af00824" y="172.8"/>
      </g>
     </g>
     <g id="text_12">
      <!-- 10 mV -->
      <g transform="translate(29.01875 176.11125)scale(0.12 -0.12)">
       <use xlink:href="#BitstreamVeraSans-Roman-31"/>
       <use x="63.623046875" xlink:href="#BitstreamVeraSans-Roman-30"/>
       <use x="127.24609375" xlink:href="#BitstreamVeraSans-Roman-20"/>
       <use x="159.033203125" xlink:href="#BitstreamVeraSans-Roman-6d"/>
       <use x="256.4453125" xlink:href="#BitstreamVeraSans-Roman-56"/>
      </g>
     </g>
    </g>
    <g id="ytick_7">
     <g id="line2d_26">
      <g>
       <use style="stroke:#000000;stroke-width:0.5;" x="72.0" xlink:href="#m433fd47c3b" y="129.6"/>
      </g>
     </g>
     <g id="line2d_27">
      <g>
       <use style="stroke:#000000;stroke-width:0.5;" x="518.4" xlink:href="#ma98af00824" y="129.6"/>
      </g>
     </g>
     <g id="text_13">
      <!-- 100 mV -->
      <g transform="translate(21.38375 132.91125)scale(0.12 -0.12)">
       <use xlink:href="#BitstreamVeraSans-Roman-31"/>
       <use x="63.623046875" xlink:href="#BitstreamVeraSans-Roman-30"/>
       <use x="127.24609375" xlink:href="#BitstreamVeraSans-Roman-30"/>
       <use x="190.869140625" xlink:href="#BitstreamVeraSans-Roman-20"/>
       <use x="222.65625" xlink:href="#BitstreamVeraSans-Roman-6d"/>
       <use x="320.068359375" xlink:href="#BitstreamVeraSans-Roman-56"/>
      </g>
     </g>
    </g>
    <g id="ytick_8">
     <g id="line2d_28">
      <g>
       <use style="stroke:#000000;stroke-width:0.5;" x="72.0" xlink:href="#m433fd47c3b" y="86.4"/>
      </g>
     </g>
     <g id="line2d_29">
      <g>
       <use style="stroke:#000000;stroke-width:0.5;" x="518.4" xlink:href="#ma98af00824" y="86.4"/>
      </g>
     </g>
     <g id="text_14">
      <!-- 1 V -->
      <g transform="translate(48.3425 89.71125)scale(0.12 -0.12)">
       <use xlink:href="#BitstreamVeraSans-Roman-31"/>
       <use x="63.623046875" xlink:href="#BitstreamVeraSans-Roman-20"/>
       <use x="95.41015625" xlink:href="#BitstreamVeraSans-Roman-56"/>
      </g>
     </g>
    </g>
    <g id="ytick_9">
     <g id="line2d_30">
      <g>
       <use style="stroke:#000000;stroke-width:0.5;" x="72.0" xlink:href="#m433fd47c3b" y="43.2"/>
      </g>
     </g>
     <g id="line2d_31">
      <g>
       <use style="stroke:#000000;stroke-width:0.5;" x="518.4" xlink:href="#ma98af00824" y="43.2"/>
      </g>
     </g>
     <g id="text_15">
      <!-- 10 V -->
      <g transform="translate(40.7075 46.51125)scale(0.12 -0.12)">
       <use xlink:href="#BitstreamVeraSans-Roman-31"/>
       <use x="63.623046875" xlink:href="#BitstreamVeraSans-Roman-30"/>
       <use x="127.24609375" xlink:href="#BitstreamVeraSans-Roman-20"/>
       <use x="159.033203125" xlink:href="#BitstreamVeraSans-Roman-56"/>
      </g>
     </g>
    </g>
    <g id="ytick_10">
     <g id="line2d_32">
      <defs>
       <path d="M 0 0 
L 2 0 
" id="md62fb7c9ba" style="stroke:#000000;stroke-width:0.5;"/>
      </defs>
      <g>
       <use style="stroke:#000000;stroke-width:0.5;" x="72.0" xlink:href="#md62fb7c9ba" y="375.795504187"/>
      </g>
     </g>
     <g id="line2d_33">
      <defs>
       <path d="M 0 0 
L -2 0 
" id="m9b9382c3b3" style="stroke:#000000;stroke-width:0.5;"/>
      </defs>
      <g>
       <use style="stroke:#000000;stroke-width:0.5;" x="518.4" xlink:href="#m9b9382c3b3" y="375.795504187"/>
      </g>
     </g>
    </g>
    <g id="ytick_11">
     <g id="line2d_34">
      <g>
       <use style="stroke:#000000;stroke-width:0.5;" x="72.0" xlink:href="#md62fb7c9ba" y="362.791008375"/>
      </g>
     </g>
     <g id="line2d_35">
      <g>
       <use style="stroke:#000000;stroke-width:0.5;" x="518.4" xlink:href="#m9b9382c3b3" y="362.791008375"/>
      </g>
     </g>
    </g>
    <g id="ytick_12">
     <g id="line2d_36">
      <g>
       <use style="stroke:#000000;stroke-width:0.5;" x="72.0" xlink:href="#md62fb7c9ba" y="355.183865983"/>
      </g>
     </g>
     <g id="line2d_37">
      <g>
       <use style="stroke:#000000;stroke-width:0.5;" x="518.4" xlink:href="#m9b9382c3b3" y="355.183865983"/>
      </g>
     </g>
    </g>
    <g id="ytick_13">
     <g id="line2d_38">
      <g>
       <use style="stroke:#000000;stroke-width:0.5;" x="72.0" xlink:href="#md62fb7c9ba" y="349.786512562"/>
      </g>
     </g>
     <g id="line2d_39">
      <g>
       <use style="stroke:#000000;stroke-width:0.5;" x="518.4" xlink:href="#m9b9382c3b3" y="349.786512562"/>
      </g>
     </g>
    </g>
    <g id="ytick_14">
     <g id="line2d_40">
      <g>
       <use style="stroke:#000000;stroke-width:0.5;" x="72.0" xlink:href="#md62fb7c9ba" y="332.595504187"/>
      </g>
     </g>
     <g id="line2d_41">
      <g>
       <use style="stroke:#000000;stroke-width:0.5;" x="518.4" xlink:href="#m9b9382c3b3" y="332.595504187"/>
      </g>
     </g>
    </g>
    <g id="ytick_15">
     <g id="line2d_42">
      <g>
       <use style="stroke:#000000;stroke-width:0.5;" x="72.0" xlink:href="#md62fb7c9ba" y="319.591008375"/>
      </g>
     </g>
     <g id="line2d_43">
      <g>
       <use style="stroke:#000000;stroke-width:0.5;" x="518.4" xlink:href="#m9b9382c3b3" y="319.591008375"/>
      </g>
     </g>
    </g>
    <g id="ytick_16">
     <g id="line2d_44">
      <g>
       <use style="stroke:#000000;stroke-width:0.5;" x="72.0" xlink:href="#md62fb7c9ba" y="311.983865983"/>
      </g>
     </g>
     <g id="line2d_45">
      <g>
       <use style="stroke:#000000;stroke-width:0.5;" x="518.4" xlink:href="#m9b9382c3b3" y="311.983865983"/>
      </g>
     </g>
    </g>
    <g id="ytick_17">
     <g id="line2d_46">
      <g>
       <use style="stroke:#000000;stroke-width:0.5;" x="72.0" xlink:href="#md62fb7c9ba" y="306.586512562"/>
      </g>
     </g>
     <g id="line2d_47">
      <g>
       <use style="stroke:#000000;stroke-width:0.5;" x="518.4" xlink:href="#m9b9382c3b3" y="306.586512562"/>
      </g>
     </g>
    </g>
    <g id="ytick_18">
     <g id="line2d_48">
      <g>
       <use style="stroke:#000000;stroke-width:0.5;" x="72.0" xlink:href="#md62fb7c9ba" y="289.395504187"/>
      </g>
     </g>
     <g id="line2d_49">
      <g>
       <use style="stroke:#000000;stroke-width:0.5;" x="518.4" xlink:href="#m9b9382c3b3" y="289.395504187"/>
      </g>
     </g>
    </g>
    <g id="ytick_19">
     <g id="line2d_50">
      <g>
       <use style="stroke:#000000;stroke-width:0.5;" x="72.0" xlink:href="#md62fb7c9ba" y="276.391008375"/>
      </g>
     </g>
     <g id="line2d_51">
      <g>
       <use style="stroke:#000000;stroke-width:0.5;" x="518.4" xlink:href="#m9b9382c3b3" y="276.391008375"/>
      </g>
     </g>
    </g>
    <g id="ytick_20">
     <g id="line2d_52">
      <g>
       <use style="stroke:#000000;stroke-width:0.5;" x="72.0" xlink:href="#md62fb7c9ba" y="268.783865983"/>
      </g>
     </g>
     <g id="line2d_53">
      <g>
       <use style="stroke:#000000;stroke-width:0.5;" x="518.4" xlink:href="#m9b9382c3b3" y="268.783865983"/>
      </g>
     </g>
    </g>
    <g id="ytick_21">
     <g id="line2d_54">
      <g>
       <use style="stroke:#000000;stroke-width:0.5;" x="72.0" xlink:href="#md62fb7c9ba" y="263.386512562"/>
      </g>
     </g>
     <g id="line2d_55">
      <g>
       <use style="stroke:#000000;stroke-width:0.5;" x="518.4" xlink:href="#m9b9382c3b3" y="263.386512562"/>
      </g>
     </g>
    </g>
    <g id="ytick_22">
     <g id="line2d_56">
      <g>
       <use style="stroke:#000000;stroke-width:0.5;" x="72.0" xlink:href="#md62fb7c9ba" y="246.195504187"/>
      </g>
     </g>
     <g id="line2d_57">
      <g>
       <use style="stroke:#000000;stroke-width:0.5;" x="518.4" xlink:href="#m9b9382c3b3" y="246.195504187"/>
      </g>
     </g>
    </g>
    <g id="ytick_23">
     <g id="line2d_58">
      <g>
       <use style="stroke:#000000;stroke-width:0.5;" x="72.0" xlink:href="#md62fb7c9ba" y="233.191008375"/>
      </g>
     </g>
     <g id="line2d_59">
      <g>
       <use style="stroke:#000000;stroke-width:0.5;" x="518.4" xlink:href="#m9b9382c3b3" y="233.191008375"/>
      </g>
     </g>
    </g>
    <g id="ytick_24">
     <g id="line2d_60">
      <g>
       <use style="stroke:#000000;stroke-width:0.5;" x="72.0" xlink:href="#md62fb7c9ba" y="225.583865983"/>
      </g>
     </g>
     <g id="line2d_61">
      <g>
       <use style="stroke:#000000;stroke-width:0.5;" x="518.4" xlink:href="#m9b9382c3b3" y="225.583865983"/>
      </g>
     </g>
    </g>
    <g id="ytick_25">
     <g id="line2d_62">
      <g>
       <use style="stroke:#000000;stroke-width:0.5;" x="72.0" xlink:href="#md62fb7c9ba" y="220.186512562"/>
      </g>
     </g>
     <g id="line2d_63">
      <g>
       <use style="stroke:#000000;stroke-width:0.5;" x="518.4" xlink:href="#m9b9382c3b3" y="220.186512562"/>
      </g>
     </g>
    </g>
    <g id="ytick_26">
     <g id="line2d_64">
      <g>
       <use style="stroke:#000000;stroke-width:0.5;" x="72.0" xlink:href="#md62fb7c9ba" y="202.995504187"/>
      </g>
     </g>
     <g id="line2d_65">
      <g>
       <use style="stroke:#000000;stroke-width:0.5;" x="518.4" xlink:href="#m9b9382c3b3" y="202.995504187"/>
      </g>
     </g>
    </g>
    <g id="ytick_27">
     <g id="line2d_66">
      <g>
       <use style="stroke:#000000;stroke-width:0.5;" x="72.0" xlink:href="#md62fb7c9ba" y="189.991008375"/>
      </g>
     </g>
     <g id="line2d_67">
      <g>
       <use style="stroke:#000000;stroke-width:0.5;" x="518.4" xlink:href="#m9b9382c3b3" y="189.991008375"/>
      </g>
     </g>
    </g>
    <g id="ytick_28">
     <g id="line2d_68">
      <g>
       <use style="stroke:#000000;stroke-width:0.5;" x="72.0" xlink:href="#md62fb7c9ba" y="182.383865983"/>
      </g>
     </g>
     <g id="line2d_69">
      <g>
       <use style="stroke:#000000;stroke-width:0.5;" x="518.4" xlink:href="#m9b9382c3b3" y="182.383865983"/>
      </g>
     </g>
    </g>
    <g id="ytick_29">
     <g id="line2d_70">
      <g>
       <use style="stroke:#000000;stroke-width:0.5;" x="72.0" xlink:href="#md62fb7c9ba" y="176.986512562"/>
      </g>
     </g>
     <g id="line2d_71">
      <g>
       <use style="stroke:#000000;stroke-width:0.5;" x="518.4" xlink:href="#m9b9382c3b3" y="176.986512562"/>
      </g>
     </g>
    </g>
    <g id="ytick_30">
     <g id="line2d_72">
      <g>
       <use style="stroke:#000000;stroke-width:0.5;" x="72.0" xlink:href="#md62fb7c9ba" y="159.795504187"/>
      </g>
     </g>
     <g id="line2d_73">
      <g>
       <use style="stroke:#000000;stroke-width:0.5;" x="518.4" xlink:href="#m9b9382c3b3" y="159.795504187"/>
      </g>
     </g>
    </g>
    <g id="ytick_31">
     <g id="line2d_74">
      <g>
       <use style="stroke:#000000;stroke-width:0.5;" x="72.0" xlink:href="#md62fb7c9ba" y="146.791008375"/>
      </g>
     </g>
     <g id="line2d_75">
      <g>
       <use style="stroke:#000000;stroke-width:0.5;" x="518.4" xlink:href="#m9b9382c3b3" y="146.791008375"/>
      </g>
     </g>
    </g>
    <g id="ytick_32">
     <g id="line2d_76">
      <g>
       <use style="stroke:#000000;stroke-width:0.5;" x="72.0" xlink:href="#md62fb7c9ba" y="139.183865983"/>
      </g>
     </g>
     <g id="line2d_77">
      <g>
       <use style="stroke:#000000;stroke-width:0.5;" x="518.4" xlink:href="#m9b9382c3b3" y="139.183865983"/>
      </g>
     </g>
    </g>
    <g id="ytick_33">
     <g id="line2d_78">
      <g>
       <use style="stroke:#000000;stroke-width:0.5;" x="72.0" xlink:href="#md62fb7c9ba" y="133.786512562"/>
      </g>
     </g>
     <g id="line2d_79">
      <g>
       <use style="stroke:#000000;stroke-width:0.5;" x="518.4" xlink:href="#m9b9382c3b3" y="133.786512562"/>
      </g>
     </g>
    </g>
    <g id="ytick_34">
     <g id="line2d_80">
      <g>
       <use style="stroke:#000000;stroke-width:0.5;" x="72.0" xlink:href="#md62fb7c9ba" y="116.595504187"/>
      </g>
     </g>
     <g id="line2d_81">
      <g>
       <use style="stroke:#000000;stroke-width:0.5;" x="518.4" xlink:href="#m9b9382c3b3" y="116.595504187"/>
      </g>
     </g>
    </g>
    <g id="ytick_35">
     <g id="line2d_82">
      <g>
       <use style="stroke:#000000;stroke-width:0.5;" x="72.0" xlink:href="#md62fb7c9ba" y="103.591008375"/>
      </g>
     </g>
     <g id="line2d_83">
      <g>
       <use style="stroke:#000000;stroke-width:0.5;" x="518.4" xlink:href="#m9b9382c3b3" y="103.591008375"/>
      </g>
     </g>
    </g>
    <g id="ytick_36">
     <g id="line2d_84">
      <g>
       <use style="stroke:#000000;stroke-width:0.5;" x="72.0" xlink:href="#md62fb7c9ba" y="95.9838659834"/>
      </g>
     </g>
     <g id="line2d_85">
      <g>
       <use style="stroke:#000000;stroke-width:0.5;" x="518.4" xlink:href="#m9b9382c3b3" y="95.9838659834"/>
      </g>
     </g>
    </g>
    <g id="ytick_37">
     <g id="line2d_86">
      <g>
       <use style="stroke:#000000;stroke-width:0.5;" x="72.0" xlink:href="#md62fb7c9ba" y="90.5865125619"/>
      </g>
     </g>
     <g id="line2d_87">
      <g>
       <use style="stroke:#000000;stroke-width:0.5;" x="518.4" xlink:href="#m9b9382c3b3" y="90.5865125619"/>
      </g>
     </g>
    </g>
    <g id="ytick_38">
     <g id="line2d_88">
      <g>
       <use style="stroke:#000000;stroke-width:0.5;" x="72.0" xlink:href="#md62fb7c9ba" y="73.3955041873"/>
      </g>
     </g>
     <g id="line2d_89">
      <g>
       <use style="stroke:#000000;stroke-width:0.5;" x="518.4" xlink:href="#m9b9382c3b3" y="73.3955041873"/>
      </g>
     </g>
    </g>
    <g id="ytick_39">
     <g id="line2d_90">
      <g>
       <use style="stroke:#000000;stroke-width:0.5;" x="72.0" xlink:href="#md62fb7c9ba" y="60.3910083746"/>
      </g>
     </g>
     <g id="line2d_91">
      <g>
       <use style="stroke:#000000;stroke-width:0.5;" x="518.4" xlink:href="#m9b9382c3b3" y="60.3910083746"/>
      </g>
     </g>
    </g>
    <g id="ytick_40">
     <g id="line2d_92">
      <g>
       <use style="stroke:#000000;stroke-width:0.5;" x="72.0" xlink:href="#md62fb7c9ba" y="52.7838659834"/>
      </g>
     </g>
     <g id="line2d_93">
      <g>
       <use style="stroke:#000000;stroke-width:0.5;" x="518.4" xlink:href="#m9b9382c3b3" y="52.7838659834"/>
      </g>
     </g>
    </g>
    <g id="ytick_41">
     <g id="line2d_94">
      <g>
       <use style="stroke:#000000;stroke-width:0.5;" x="72.0" xlink:href="#md62fb7c9ba" y="47.3865125619"/>
      </g>
     </g>
     <g id="line2d_95">
      <g>
       <use style="stroke:#000000;stroke-width:0.5;" x="518.4" xlink:href="#m9b9382c3b3" y="47.3865125619"/>
      </g>
     </g>
    </g>
   </g>
  </g>
 </g>
 <defs>
  <clipPath id="pb0f1719e40">
   <rect height="345.6" width="446.4" x="72.0" y="43.2"/>
  </clipPath>
 </defs>
</svg>
